# File created by Blade
# Date/Time:  Thu Sep 25 19:36:54 2014
# Frame Rate: 120.000 fps
#------------------------------------------------------
:FULLY-SPECIFIED
:DEGREES
1264
root -3.347319 32.837373 2.207367 1.364348 3.180413 1.179520
Spine -4.957088 4.398793 0.960090
Head -26.540177 2.308954 10.904157
LeftShoulder -18.990328 24.319529 16.161464
LeftArm 18.400964 -11.573434 -41.038265
LeftForeArm -10.447729 -0.000000 14.019676
LeftHand -28.771851 -0.000000 2.871686
LeftHandThumb1 -26.253704 0.000000 33.147579
RightShoulder -24.540373 10.029739 -31.112289
RightArm -10.518179 -5.700704 36.108678
RightForeArm -25.778374 0.000000 16.136513
RightHand -12.675061 -0.000000 -6.549436
RightHandThumb1 -24.326973 -0.000000 -32.862282
LeftUpLeg 3.567328 -1.272473 -0.714526
LeftLeg -0.519047 -0.000000 0.000000
LeftFoot -11.277178 5.726207 -18.467690
LeftToeBase 7.798786 -0.000000 -0.000000
RightUpLeg 3.992606 -3.405421 0.082427
RightLeg 2.726646 -0.000000 -0.000000
RightFoot -12.081516 -9.887985 2.317029
RightToeBase 0.060895 -0.000000 -0.000000
1265
root -3.345614 32.835143 2.172015 1.612057 3.260335 1.181579
Spine -4.940238 4.348336 0.982908
Head -26.831888 2.412853 10.702156
LeftShoulder -18.881238 24.304487 15.320338
LeftArm 18.352945 -10.130292 -42.315531
LeftForeArm -10.684673 -0.000000 14.141648
LeftHand -28.413708 -0.000000 1.119687
LeftHandThumb1 -26.253704 0.000000 33.147579
RightShoulder -24.609983 9.924977 -30.478189
RightArm -11.123536 -5.874419 37.745715
RightForeArm -24.079271 0.000000 16.174743
RightHand -12.201787 -0.000000 -6.054319
RightHandThumb1 -24.326973 -0.000000 -32.862282
LeftUpLeg 3.256421 -1.354749 -0.716215
LeftLeg -0.526130 -0.000000 0.000000
LeftFoot -11.306409 5.742356 -18.361718
LeftToeBase 7.995736 -0.000000 -0.000000
RightUpLeg 3.748045 -3.374184 0.099954
RightLeg 2.605143 -0.000000 -0.000000
RightFoot -12.033339 -9.961074 2.343595
RightToeBase 0.123105 -0.000000 -0.000000
1266
root -3.339982 32.833023 2.145459 1.815417 3.317613 1.180778
Spine -4.890772 4.287179 1.025256
Head -27.126574 2.495571 10.497746
LeftShoulder -18.926300 24.512798 14.367294
LeftArm 18.677958 -8.756813 -43.716554
LeftForeArm -10.914269 -0.000000 14.144940
LeftHand -28.125750 -0.000000 -0.656225
LeftHandThumb1 -26.253704 0.000000 33.147579
RightShoulder -24.652934 9.772957 -29.843131
RightArm -11.669253 -6.001643 39.502868
RightForeArm -22.423060 -0.000000 16.281082
RightHand -11.774385 -0.000000 -5.395791
RightHandThumb1 -24.326973 -0.000000 -32.862282
LeftUpLeg 3.013337 -1.325297 -0.712693
LeftLeg -0.548205 -0.000000 0.000000
LeftFoot -11.220821 5.652011 -18.498413
LeftToeBase 7.742618 -0.000000 -0.000000
RightUpLeg 3.533647 -3.421419 0.113284
RightLeg 2.529698 -0.000000 -0.000000
RightFoot -11.902264 -10.065510 2.129437
RightToeBase -0.133327 -0.000000 0.000000
1267
root -3.337197 32.830530 2.117827 1.985775 3.361629 1.165125
Spine -4.790814 4.214572 1.074410
Head -27.372725 2.570742 10.318364
LeftShoulder -18.860695 24.418022 13.492194
LeftArm 18.694287 -7.279393 -45.135008
LeftForeArm -11.125864 -0.000000 14.262795
LeftHand -27.752897 -0.000000 -1.771736
LeftHandThumb1 -26.253704 0.000000 33.147579
RightShoulder -24.625254 9.653099 -29.166171
RightArm -12.277483 -6.089920 41.297427
RightForeArm -21.059424 -0.000000 16.475391
RightHand -11.299847 -0.000000 -4.406593
RightHandThumb1 -24.326973 -0.000000 -32.862282
LeftUpLeg 2.798975 -1.313431 -0.695320
LeftLeg -0.564967 -0.000000 0.000000
LeftFoot -11.204900 5.618150 -18.460506
LeftToeBase 7.714904 -0.000000 -0.000000
RightUpLeg 3.309146 -3.496384 0.134820
RightLeg 2.556916 -0.000000 -0.000000
RightFoot -11.976185 -10.011756 2.200039
RightToeBase 0.047570 -0.000000 -0.000000
1268
root -3.335454 32.827249 2.087452 2.132309 3.417954 1.188164
Spine -4.643512 4.141533 1.046395
Head -27.660723 2.674621 10.277662
LeftShoulder -18.847998 24.445721 12.527298
LeftArm 18.907818 -5.919123 -46.544493
LeftForeArm -11.391964 -0.000000 14.416884
LeftHand -27.659047 -0.000000 -2.496129
LeftHandThumb1 -26.253704 0.000000 33.147579
RightShoulder -24.656224 9.650780 -28.535198
RightArm -12.867470 -6.409309 43.219206
RightForeArm -19.555969 0.000000 16.691812
RightHand -10.840214 -0.000000 -3.110704
RightHandThumb1 -24.326973 -0.000000 -32.862282
LeftUpLeg 2.602276 -1.339577 -0.716376
LeftLeg -0.576576 -0.000000 0.000000
LeftFoot -11.193393 5.591040 -18.473049
LeftToeBase 7.793872 -0.000000 -0.000000
RightUpLeg 3.121125 -3.561897 0.120664
RightLeg 2.545374 -0.000000 -0.000000
RightFoot -11.981081 -10.022122 2.149909
RightToeBase 0.064246 -0.000000 -0.000000
1269
root -3.334264 32.824369 2.058751 2.288445 3.458761 1.157775
Spine -4.548766 4.105907 1.089149
Head -27.797902 2.649546 10.149258
LeftShoulder -18.759187 24.359433 11.624688
LeftArm 19.014553 -4.465023 -48.039446
LeftForeArm -11.882089 -0.000000 14.621139
LeftHand -27.618074 0.000000 -2.886465
LeftHandThumb1 -26.253704 0.000000 33.147579
RightShoulder -24.659166 9.578134 -27.863170
RightArm -13.401751 -6.926263 45.230507
RightForeArm -17.652024 0.000000 16.947471
RightHand -10.332389 -0.000000 -2.638412
RightHandThumb1 -24.326973 -0.000000 -32.862282
LeftUpLeg 2.397499 -1.317185 -0.690514
LeftLeg -0.603582 -0.000000 0.000000
LeftFoot -11.187522 5.592548 -18.487093
LeftToeBase 7.789653 -0.000000 -0.000000
RightUpLeg 2.894878 -3.649396 0.161855
RightLeg 2.585847 -0.000000 -0.000000
RightFoot -11.972729 -10.021303 2.034367
RightToeBase 0.070713 -0.000000 -0.000000
1270
root -3.332450 32.819222 2.034828 2.401277 3.474870 1.151213
Spine -4.434128 4.099158 1.063674
Head -27.906737 2.625614 10.148817
LeftShoulder -18.606602 24.271132 10.830463
LeftArm 19.079834 -3.102597 -49.692806
LeftForeArm -12.400102 -0.000000 14.913738
LeftHand -27.813962 -0.000000 -2.899389
LeftHandThumb1 -26.253704 0.000000 33.147579
RightShoulder -24.682493 9.367753 -27.180839
RightArm -13.773074 -7.549044 47.434575
RightForeArm -15.852993 0.000000 17.167241
RightHand -9.707736 -0.000000 -1.463591
RightHandThumb1 -24.326973 -0.000000 -32.862282
LeftUpLeg 2.250700 -1.280155 -0.678694
LeftLeg -0.612669 -0.000000 0.000000
LeftFoot -11.168432 5.516136 -18.367736
LeftToeBase 7.744518 -0.000000 -0.000000
RightUpLeg 2.753311 -3.671620 0.170924
RightLeg 2.557856 -0.000000 -0.000000
RightFoot -11.979097 -9.997784 2.027947
RightToeBase 0.028378 -0.000000 -0.000000
1271
root -3.330057 32.814409 2.017698 2.477165 3.480734 1.148212
Spine -4.276518 4.091555 1.019903
Head -28.012463 2.638575 10.188854
LeftShoulder -18.442478 24.156777 10.087009
LeftArm 19.069933 -1.903025 -51.508152
LeftForeArm -12.794303 0.000000 15.359535
LeftHand -28.098874 -0.000000 -2.861372
LeftHandThumb1 -26.253704 0.000000 33.147579
RightShoulder -24.610830 9.316396 -26.550461
RightArm -14.363947 -8.139506 49.757385
RightForeArm -14.414574 -0.000000 17.495706
RightHand -9.643784 -0.000000 -0.494453
RightHandThumb1 -24.326973 -0.000000 -32.862282
LeftUpLeg 2.176152 -1.278419 -0.680337
LeftLeg -0.680307 -0.000000 0.000000
LeftFoot -11.161226 5.526810 -18.327415
LeftToeBase 7.751136 -0.000000 -0.000000
RightUpLeg 2.667240 -3.704716 0.172166
RightLeg 2.521413 -0.000000 -0.000000
RightFoot -11.986866 -9.983776 1.986584
RightToeBase 0.063308 -0.000000 -0.000000
1272
root -3.327111 32.809733 2.003502 2.534493 3.486007 1.147742
Spine -4.119900 4.056135 1.000269
Head -28.070550 2.545574 10.173029
LeftShoulder -18.276187 24.107882 9.315140
LeftArm 19.102929 -0.759900 -53.357846
LeftForeArm -12.980829 -0.000000 15.764720
LeftHand -28.266639 -0.000000 -3.033171
LeftHandThumb1 -26.253704 0.000000 33.147579
RightShoulder -24.562679 9.183322 -26.010455
RightArm -14.828143 -8.787656 52.271502
RightForeArm -13.199138 -0.000000 17.768177
RightHand -9.413847 -0.000000 0.068275
RightHandThumb1 -24.326973 -0.000000 -32.862282
LeftUpLeg 2.123341 -1.239833 -0.689581
LeftLeg -0.745096 -0.000000 0.000000
LeftFoot -11.157318 5.523950 -18.320858
LeftToeBase 7.818347 -0.000000 -0.000000
RightUpLeg 2.611439 -3.718310 0.170420
RightLeg 2.467879 -0.000000 -0.000000
RightFoot -11.971867 -9.981191 1.927831
RightToeBase 0.048729 -0.000000 -0.000000
